<svg xmlns="http://www.w3.org/2000/svg" width="556" height="485.3">
  <path fill="#fefefe" d="M0 242.7V0h556v485.3H0Zm26.7 238c8.4-2.7 38.5-21.3 50-30.8 9.8-8.1 53-36.6 55.5-36.6 1 0-4 10.6-6.3 13.4a76 76 0 0 0-8.2 28l-.7 8.9 10.5.8 28.5 2.2c9.9.7 24.9 2 33.3 2.7 26.9 2.5 51.6 4 91.4 5.3 21.2.7 44.3 2 51.3 2.7 29.2 3 55.6 4.3 80.7 3.7l26.6-.6 10-3.4a160 160 0 0 0 20.2-8.9c5.5-3 10.4-5 11-4.6 2.7 2.9 1.8-4.8-1.5-11.9l-4-8.4 3.2-4c1.8-2.1 5.3-7 7.8-10.6 2.5-3.8 6.2-8.6 8.3-10.8a355.4 355.4 0 0 0 21.7-25 249.8 249.8 0 0 0 33.4-65.5l3-9.3.6-15.3.6-15.4-2.9-11.2c-4-15.6-7-23.2-11.9-29.3a24 24 0 0 1-4.1-6.5c0-1.2-36.8-28-42-30.6l-8.7-4.3-6-3-13.3-1.5-13.4-1.6-.1-6c-.2-6.5 1.4-9.8 9-18.2 6.4-7.2 7-9.6 6.1-27.6l-.7-14.8-2.6-7.4c-1.5-4.1-4-10-5.5-13l-2.8-5.5-7-3.5a61 61 0 0 1-9-5.3c-6.6-5.9-28.3-12.4-44.8-13.6l-11.2-.8-11.7 3.7c-6.4 2-13 4.9-14.4 6.2-3.8 3.5-3.8 3.5-8-6.5-4.1-9.9-8.3-17-14.1-24.5l-3.9-5 6.3-2a42 42 0 0 1 11-2.2c11 0-5.8-5.2-17.6-5.4l-5.6-.1 9.7-4.6c5.4-2.5 13-5.5 16.7-6.7 3.8-1.1 8.1-2.6 9.6-3.3l2.6-1.3-20.6.7a251 251 0 0 0-26.7 2l-9.1 2.1-3.1.7.9-1.4.9-1.4-3.8.8-10.2 2.7-6.5 1.8.6-1.6c.3-.9 2.6-2.6 5-3.9l4.6-2.2-2.3-.9c-3.6-1.4-3-3.3 5.7-15.7C303.2 9.2 306 4 305 4c-5 0-28.8 20.4-37.5 32.1L264 41l-5.3-1.5-5.3-1.4-4.6 2.3c-4.1 1.9-10 9.6-8.4 11 .3.4 2.4-.3 4.8-1.5 13-6.5 8.6 9.8-5.1 18.9-3 1.9-5.5 4.7-5.7 6.3L234 78l-7 3.8c-8.5 4.5-11.4 8.5-11.5 16.1l-.2 5.8 2.6 2.8c3.6 4 6.7 3.5 11-1.8 5.2-6.2 11.7-8.7 23.1-8.7 13.4 0 19.4-3.5 21.2-12.3l1-4.4 4.2 8.5 4.2 8.5.9-2.2c.5-1.2.5-5 0-8.5l-.8-6.3 1.8 2.3c2.5 3.3 3.5 1.6 1.9-3.1-.8-2.2-1-4.3-.7-4.6 1-1 13.2 7.8 16 11.5l2.5 3.5-1 3.6c-2.5 10.2-38.7 21.4-62 19.2-8-.8-8-.2-1.2 5.5l5.3 4.4-7.7 5.6a87.2 87.2 0 0 0-29.7 40.2l-2.8 8-.7 16.6c-.8 23.3 1.7 34.8 4.3 19.4l.8-5.2 1.3 1.9c.6 1 2 5 3.2 8.9l2 7h2.4c1.2 0 4.3 1.9 6.8 4l4.6 3.9-4 1.4a61 61 0 0 0-17.1 9.9c-3 2.3-9 6-13.3 8.1l-8 4-1.8 3.6c-2.2 4.7-7.8 9.1-11.5 9.1-1.6 0-4.2 1-5.8 2l-3 2.2v3.7c0 4-4 10.8-12.1 20a199.2 199.2 0 0 0-21.5 35l-3.7 7.7-5.7 1.5a182 182 0 0 0-15.6 5.6l-10 4-4.9 5-4.8 4.9-1.5 7a67 67 0 0 0-1.5 10.1v3.3h-4c-2.2 0-4-.6-4-1.3a32 32 0 0 0-8.5-9.4c-.3 0-.3 1.4 0 3 .3 1.7.2 2.3-.3 1.4-.4-1-1.9-2.3-3.2-3l-2.4-1.3.5 3c.3 1.6.2 2.2-.2 1.3-.4-1-2.1-2.4-3.7-3.3l-2.9-1.5 1.6 2 1.6 1.8-2.1 4.4a13.7 13.7 0 0 1-6.6 6.2c-5.4 2.3-5.4 1.1.2 12.9 6.7 14 5.3 19.4-6.4 25.3a212 212 0 0 0-15 8.7 87.2 87.2 0 0 1-10.4 5.8A48 48 0 0 0 2 448c-2.2 7 2 22.2 7.7 27.6 7.2 6.7 9.7 7.5 17 5.1zm184-104.8c0-.8.6-1 1.3-.6.7.5 1.3 1.1 1.3 1.4 0 .4-.6.6-1.3.6-.7 0-1.3-.6-1.3-1.4zm100.6-120c-.5-.8-.3-2 .4-2.8 1.7-1.7 4.3-.3 4.3 2.3 0 2.3-3.4 2.6-4.7.5zm-62-43.7c0-.7 1.8-1.5 3.9-2a20 20 0 0 0 7.7-4.2l3.8-3.4-3.8.9c-9.7 2.2-21.6-5.3-26.4-16.6-3.7-8.7-2.6-9.2 3.5-1.6 2.9 3.6 6 7 7 7.3l1.8.7-.9-6.4-.8-6.4 2-8c3.8-15 10.1-21.9 19.8-21.8h4.4l-3.8 3.4c-4.9 4.3-3.7 5.4 3.5 3.3 11.2-3.3 26-14.2 42.3-31.4 4-4.3 9.4-9.7 12-12.1 2.5-2.5 5.3-6.9 6.2-10l1.7-5.7-2.7-8c-1.5-4.5-3.6-9.7-4.6-11.8l-2-3.7h2.1c4.2 0 23 20.4 22.7 24.6 0 .8-1 3.4-2 5.9l-1.8 4.5 1.5 4c1.8 4.8 1.3 5.8-4.2 8.1l-4.2 1.8-3.9 7.9-3.9 7.8-9.8 9.8c-16.8 16.9-19.7 22.3-19.7 37.2v8.4h-2.2c-1.3 0-4.7 2-7.7 4.5-9 7.5-41.5 17.6-41.5 13zm122-45.9-3.5-3 1.4-3.3c.7-1.8 1.4-2.7 1.5-2a64.1 64.1 0 0 0 1.1 5.7c.1.9 1.6 1.6 3.4 1.6 1.7 0 5 .4 7.4.9l4.3.8-1.8 1.2c-3.4 2.1-10.2 1.2-13.8-1.9zm-35-15.9c-2.7-2.7-1.8-4 1.2-1.9l3 2 2.3-1.2c2.3-1.3 4.6.2 3 1.8-1.5 1.5-7.8 1-9.5-.7zM248.8 73c.8-2 10-9.2 10.9-8.4 1.2 1.2-6.8 10-9.1 10-1.5 0-2.2-.6-1.8-1.6zM74.7 372.7c0-.4-.3-.7-.7-.7-.4 0-.7.3-.7.7 0 .3.3.6.7.6.4 0 .7-.3.7-.6z"/>
  <path fill="#e4e1da" d="M18.7 482c0-.4.3-.7.6-.7.4 0 .7.3.7.7 0 .4-.3.7-.7.7a.7.7 0 0 1-.6-.7zm201.5-12.1c-15.7-1-28.8-2-29.1-2.4-1-1 4.6-16.3 10.4-28.6a113 113 0 0 0 5.2-12.2c0-.6 2-3.8 4.4-7 2.4-3.1 7-9.6 10.2-14.4a106.6 106.6 0 0 1 30.2-30.4c2-2.8 3-2 17 14.8a332 332 0 0 0 16 18.2c4.4 4 4.4 5.1-.3 14.5-2.1 4.2-4.3 10-4.8 13-.5 2.9-2.4 8.7-4.2 13a66.5 66.5 0 0 0-4 15.6l-1 8-10.7-.2c-6 0-23.7-1-39.3-2zM514.7 394c0-.4.3-.7.6-.7.4 0 .7.3.7.7 0 .4-.3.7-.7.7a.7.7 0 0 1-.6-.7zM302 354.6c-7.3-3.6-16.5-7.2-20.3-8l-7-1.4 1.5-3.6c.8-2 2.2-6.3 3.1-9.6 4.5-15.2 11.4-26.8 19-31.8l4.4-2.9v6.2c0 7.5 3 14 8.4 18.7l4.2 3.5 7.5-.8 7.5-.8 14.5-6.8 18.2-8.6c5.5-2.9 4.5-1.3-4.7 7a271.7 271.7 0 0 0-36.9 38.6c-2.4 3.9-4.7 7-5.2 7-.5-.1-6.9-3.1-14.2-6.7zm-8-22.9c-1-1.6-2-4-2-5.3 0-1.3-.6-2.4-1.3-2.4-2.2 0-1.6 5.6.8 8.2 3.2 3.5 5 3 2.6-.5zm5.8-2-2.6-5 .4-9c.4-9.9-1.7-12.7-3.2-4.2-1.5 8 2.6 23.2 6.3 23.2h1.7z"/>
  <path fill="#eed7ab" d="M309.3 425.6a90.7 90.7 0 0 1-12.5-11 259 259 0 0 1-37.6-40.7c-2-3.3-3.9-5.8-4.4-5.6-5 2.8-13.1 5.8-20.7 7.8a48 48 0 0 0-12.7 5 67.9 67.9 0 0 1-7.6 4.6l-4.1 2.2-4.5-1.5-6.4-2-2-.5 1.6-1.5c1-1 5.5-1.9 10.2-2.2 5.2-.3 9.3-1.3 10.2-2.4.8-1 2.6-1.8 4-1.8 3.4 0 6.5-1.4 6.5-3 0-.7-2.8-1-6.3-.9-9.8.5-12.7 0-16.3-2.7l-3.4-2.6 6.7 2 6.7 2 6.9-.6c3.7-.4 8.2-1.4 9.8-2.2 4.3-2.3 1.4-4.2-4.1-2.7a51.5 51.5 0 0 1-38.3-7.6c-6-4.4-4.3-6 3.3-3 3.5 1.2 11 3 16.7 3.9l10.3 1.6 7.4-3.4c4-1.8 7.3-4 7.3-4.7 0-2-1.5-1.8-8.7 1.4l-6.4 2.8-8.3-.8c-16.9-1.8-26.2-6-21.1-9.8l2.5-1.9 9 .5 8.9.4 4 3 4.1 3 5.7-3.8c3-2 9.5-5.8 14.3-8.3l9.2-5c.4-.2 0-1-.8-1.7l-1.4-1.5-4 2.1a37.9 37.9 0 0 1-9.5 3l-5.5.8-3.4-2.2c-4.3-2.8-4-3.1 5.2-5.5 4-1.1 11.4-3.8 16.4-6 12.6-5.7 19.1-2.4 19.1 9.6 0 2.5 1.5 7.2 3.2 10.5l3.2 6 9.2 1.6 9.1 1.6 12.5 6.3a142.2 142.2 0 0 1 32.6 21l5.1 4.7-2 3.7a232 232 0 0 0-14.9 33.4c-4.3 13-3.1 12.6-14 4.6zM49.3 387v-2l4.7.5 4.8.5-.7-1.6-.6-1.7 1.9.7c1 .5 2 1.3 2 2 0 .6.6 1.2 1.4 1.2.8 0 1.2-.9.7-2l-.7-1.9 2 .7c1 .5 1.9 1.3 1.9 2 0 .6.6 1.2 1.4 1.2.9 0 1.2-.8.9-1.8-.4-1 .3-1.8 1.7-1.9l2.5-.2-.8 2.3-.8 2.2 1.8-1.6c2-2 9.3-2.3 9.3-.4 0 1.3-6 2.2-22.4 3.3l-11 .6zm38.6-2-1.6-2.9.7-8.6.7-8.6 3.8-5.4 3.9-5.5 10.3-5.2 10.4-5.3 7.6-.8 7.5-.8.9-4c3-14.3 25.3-48.4 34.9-53.5 11-6 29.6 12.1 28.6 27.9l-.4 6.3-14.7 9.7c-8 5.3-18.5 12.7-23.2 16.4-4.8 3.7-11.3 8.5-14.6 10.6-3.3 2.1-8.3 5.6-11 7.7-6 4.5-7.1 4.2-4.4-1.3 2-4 1.4-9.8-1-9.8-.7 0-1 1.2-.6 2.6l.7 2.5-3 2.9-3 2.8-.7 8.1-.6 8.1-4.5 3.8c-7.6 6.3-10.5 5.4-7.3-2.3 1.1-2.7 2-8.3 2-12.5v-7.7l-2.6-3.2-2.6-3.1v2.3c0 1.2.5 2.6 1.2 3 3.6 2.2.5 20.3-3.6 21.7-3.1 1-3.4-3.8-.6-9 3-5 3.9-12 1.7-12-.6 0-1.5 1.7-1.9 3.8-.4 2.1-2.4 5.7-4.3 8L93 376l2.2 2.4c3 3.3 2.7 4.8-1.2 7.3-4.1 2.8-4.3 2.8-6.1-.7zm222.8-67.7c-7.4-8-7-18.8 1.3-26.6l5-4.8 1.6-5.9a29.1 29.1 0 0 0-.7-16.5c-.3-.9 0-2.5.7-3.6l1.3-2 2.2 2.2c1.2 1.2 3.2 5.2 4.4 9l2.2 6.7 2-1.2 2-1.3-1.7-2.7a11 11 0 0 1-1.7-4.1c0-3-8.1-13.1-14.7-18a46.3 46.3 0 0 1-10-10.7l-3.3-5.5.4-4.9c.3-5.4 1.3-6 3.9-2.4a14 14 0 0 0 11.2 5.6c2 0 4.4 1 5.3 2.3l1.8 2.3V232l.1-3.5 3.4-1.5c3.5-1.6 8-10 6.6-12.3-1.5-2.4-3.2-1.3-3.6 2.3-.5 4.5-5.8 8.4-12.5 9.3l-5.2.7-3.7-2.9c-2-1.6-3.7-3.8-3.7-5v-2l2 .9 4 1.6c7.6 3 15.3-24 9.3-32.5-2.7-3.8-4-3.8-9.5.4l-4.4 3.4V189c0-1 1.7-3.7 3.9-6l4-4.3h8.2l2.6 4.5c3.8 6.4 10.6 7.2 12.8 1.4 1.2-3.2-.3-3.7-4-1.3l-3.4 2.2-3.4-5.4-3.4-5.4h-4c-8.3 0-13.7 4.6-16.2 14l-1 4 .7-9.4c1-12.2 3.6-16.8 16-28.5l10.3-9.9 3.4 4.1 3.5 4.1 6.3.5 6.3.4v-2.8c0-3.2-4.4-6.7-9.4-7.5l-3.2-.5 5-2.5c5.5-2.8 5.6-5.4 0-2.7-2 1-5 2.1-6.7 2.6l-3 1V140c0-.8.7-2.7 1.4-4.2l1.5-2.7 4.4.8c2.6.5 4.9.3 5.3-.5.5-.8 2.5-1.4 4.5-1.4 4.3 0 9.6-3.4 9.6-6s-.3-2.5-5.7.7l-4.6 2.7-4.2-.9c-6-1.2-5.3-2.3 4.5-7.8 4.7-2.6 8.6-5.4 8.6-6.2 0-2.5 9-5 20.8-5.7l11.9-.8-4.3 2c-4.2 2-5.5 3.9-3.4 5 .6.4 5.2.1 10.3-.5 10.8-1.3 12.4-.7 5.5 2.2-2.7 1.1-4.7 2.8-4.4 3.7l.5 1.6 12.7.7 12.6.6 2.4 2.4c1.2 1.2 3.1 2.3 4.2 2.3 2.5 0 2.4 1-.7 5a27.7 27.7 0 0 0-4 8.1L420 146l1.5 8.2 1.5 8-2.4 5.3a45.5 45.5 0 0 1-7.6 10.3c-5.4 5.4-5.5 7.6-.4 7.6 1.8 0 4.3 1.5 5.7 3.2l2.5 3.2 2.7-3 2.8-3.1 6.3-1 6.3-1 3.2 1.5c1.8.9 4 3 4.8 5l1.6 3.4-1.7 6.3c-3 11.5-10.4 17.5-21.4 17.5h-5.3l-3-4c-1.6-2.2-3.4-4-4-4-2.1 0-1 3.9 2.2 7.7l3.3 4-1.4 5c-.8 2.8-1 7-.6 9.4l.8 4.3-3.2 8.7c-1.7 4.9-5.8 13.4-9 19l-5.8 10.2-10.6 10-10.5 10-11.4 5.2c-6.3 2.9-12.2 5-13 4.6-1-.3-3.1.5-4.8 1.8-1.7 1.3-6.5 4.4-10.8 6.7l-7.6 4.4-8 .7-8 .7zm48.7-65.5c6.3-3.4 9.4-6.2 8.2-7.4-.5-.5-4 .7-7.8 2.8L353 251h-18.4l-3.4-2.3c-3.7-2.4-5.3-2-4 1.2 1 2.7 7.8 4.5 18.2 4.6l8.6.2 5.4-2.8zm12.4-42.5c.3-1-.2-1.5-1.2-1.1-1 .3-2 1.3-2.4 2.3-.3 1 .2 1.5 1.2 1.1 1-.3 2-1.3 2.4-2.3zm66.6-.9c1.7-1 3.7-3.6 4.4-5.5l1.4-3.6-1.4-3c-3.3-7.2-26.2-2-23.8 5.3.8 2.3 3.7 2.7 3.7.6 0-2.7 8.5-6.6 13-6l3.6.4.4 2.7c.2 1.5-.8 3.9-2.3 5.2l-2.7 2.5v-2.2c0-1.2-1-2.2-2-2.2-2.2 0-4.7 4-4.7 7.4v2.2l3.7-1c2-.4 5-1.7 6.7-2.8zm-70.4-3c0-1.2-1-3.7-2.3-5.5l-2.4-3.3-.6-9c-.4-5-1.3-9-2-8.7-.7.2-1.2 1.3-1 2.5.2 1.2-.6 2.6-1.8 3-2.4 1-5.9-1.2-5.9-3.6 0-.7-1-2.5-2.2-3.8l-2.2-2.4h-10.3v-2c0-1.1-.6-2-1.3-2-.7 0-1.3-.9-1.3-2 0-2.2 4.4-3.8 7.8-2.8 3.6 1.2 8.8-3.6 10.6-9.6 2-6.4 2-13.6.2-13.6-.7 0-1.3 2.3-1.3 5.1s-1 7-2.1 9.3l-2.1 4.2h-4.9c-2.7 0-6.4.8-8.2 1.8l-3.4 1.7.3 3.7c.2 2.1 1.2 5.2 2.4 7l2 3.2h10.7v1.8c0 2.3 7.4 8.8 10 8.8 1.1 0 2 .8 2 1.8s1.5 4 3.3 6.8c1.8 2.7 3.3 6.4 3.3 8.2 0 2 .6 3 1.4 2.6.7-.5 1.3-1.9 1.3-3.1Zm25.3-21.8c0-2.3-2.3-5.8-3.2-5-1 1.1.7 6.6 2 6.6.7 0 1.2-.7 1.2-1.6zm-9.2-5.7c0-.7-3-1.5-6.6-1.7-7.2-.5-9-1.8-10.8-8.2-1.4-4.8-.7-5.2 2.6-1.2l2.3 2.9 8.5.6a30 30 0 0 1 10.3 2l1.7 1.4 1.6-1.7 1.6-1.6-4.3-4c-2.4-2-5.5-3.8-7-3.8-1.3 0-4.4-1.6-6.7-3.6l-4.2-3.5 3.8-3c4.4-3.5 3.5-5.8-1.1-2.9a27.4 27.4 0 0 1-8.1 2.9c-5.5 1-6.7 3.2-2.3 4.4 3.2.8 2.7 3.9-.5 3.3l-2.2-.4v4.5c0 2.5.6 6.4 1.4 8.7l1.5 4.2 4.2.6c11.8 2 14.4 2 14.3 0zm13.2-.3c0-1.9-2.5-5-3.3-4.2-1 1 .7 5.2 2.1 5.2.7 0 1.2-.5 1.2-1zm0-20.3c0-6.7-3.7-14.7-6.8-14.7h-2.3L387 137c-.6-3-1.9-5.8-2.8-6.1-2.7-.9-1.9 3.3 2.4 13.1 2.3 5.1 3.7 10 3.2 10.7-.9 1.4 4.3 7.9 6.3 7.9.6 0 1.1-2.4 1.1-5.3zm-50.6 0c0-.8-2.8-1.4-6.3-1.4h-6.2l-3.1-2.9-3.1-2.9v1.8c0 1 1 2.9 2.2 4.2l2.2 2.5h7.1c4 0 7.2-.6 7.2-1.4z"/>
  <path fill="#bdd1b8" d="M290.3 473.3c-8.6-.5-16-1.1-16.2-1.5-1-.9 1.9-12.2 3.5-14.1l1.5-1.8 1.4 1.4c.7.7 4.1 1.4 7.4 1.4 3.4 0 10 .9 14.8 2 4.7 1 12.1 2.3 16.3 2.7l7.7.8-3.3 4a16.4 16.4 0 0 0-3.4 5.2c0 1.4-5.4 1.3-29.7 0zm-120-7.6-7.7-.5.6-3 2.2-10 1.6-7.2 2.8 3.4c4.2 5 17.3 7.6 19.4 4l1-2 .7 2.4c.4 1.4-.5 5-1.8 8.2l-2.5 5.7-4.3-.3-12-.7zm116.4-361c0-.4.3-.7.6-.7.4 0 .7.3.7.7 0 .3-.3.6-.7.6a.7.7 0 0 1-.6-.6zm61.3-5.4c0-.3.3-.6.7-.6.3 0 .6.3.6.6 0 .4-.3.7-.6.7a.7.7 0 0 1-.7-.7Z"/>
  <path fill="#dcad87" d="M104.9 421c-5-8.1-8.9-15.6-8.9-17 0-.8-1.5-3.7-3.3-6.4l-3.3-4.8 1.4-1.4 1.4-1.4 2.9 3.8c4.1 5.5 15.5 28 14.7 29.2-1.1 1.8-3 1-5-2zm109.5-42c1-.3 2.1-.2 2.6.2.4.4-.4.8-1.8.7l-2.5-.1zm-28.7-7.4c.9-2.3-7-15.4-14.6-24.2l-4.5-5.2 1.4-1.4 1.3-1.3 2.6 2.4c1.5 1.3 6 7.4 10.1 13.5l7.5 11.2-.4 3c-.2 1.5-1.3 3.1-2.3 3.5l-1.9.6zm80-55.1c1-.9-9.4-14.8-16.9-22.8l-4-4.4 1.4-1.4 1.4-1.4 4.3 4.3c12.6 12.5 20.5 26.5 15.1 26.5-1.1 0-1.7-.4-1.3-.8zm97-7.8c0-.4.3-.7.6-.7.4 0 .7.3.7.7 0 .3-.3.6-.7.6a.7.7 0 0 1-.6-.6z"/>
  <path fill="#8eb3c4" d="M373.3 478.5c-23.4-1.6-50-4-50.5-4.5-.2-.3 1.4-2.4 3.8-4.8l4.2-4.2 1.9 2.5c1 1.4 1.9 2 2 1.5 0-.5 2.6.2 5.7 1.6 13.9 5.9 47.5 6.6 67.6 1.4 6.2-1.6 14.2-3.5 17.7-4a132.8 132.8 0 0 0 31-10.7c1.3 0 11-4.1 18.2-7.7 1-.5 4.6 10.1 3.6 10.8a213 213 0 0 1-33.8 15.3l-9.4 2.7-24.6.5c-13.6.3-30.4.1-37.4-.4ZM151 464.2l-1.7-1 1.9-7c2.2-8.5 2.1-8.4 7-7.4l4 .8-1.3 7.9-1.3 7.8h-3.5c-1.9 0-4.2-.5-5-1zm-21.5-1.9-9.8-1.3.6-7.6c1-9.7 5.6-21.2 13.4-32.9 6.2-9.2 19-23 20.3-21.6.3.3-1.7 3-4.6 5.8-2.8 2.9-5 5.7-4.6 6.2.3.5-.3 3.2-1.4 5.9-2.8 6.6-5 20.8-3.5 22.3.7.7 1 2 .6 2.8-.8 2.1 2.5 4.9 6.1 5.1l2.9.2-.8 2.8c-.5 1.4-1.2 5.2-1.6 8.3l-.8 5.7-3.5-.2c-1.9 0-7.9-.7-13.3-1.5zm369.2-56.1c0-.6 1.5-3 3.3-5.1 1.8-2.2 3.3-4.8 3.3-5.7 0-1.7 1.5-4.6 14.4-29.2a213 213 0 0 0 9.8-22.9 85.3 85.3 0 0 1 5.3-13.2c.7-.7 1.2-3.6 1.2-6.5s1-8.8 2-13.3l2.2-8-.6-19.5c-.7-20.6-1.4-28.3-3-31-.6-.9-.4-1.2.4-.7 5.5 3.4 13.7 33.3 13.7 50v10.6l-3.4 11.8a237 237 0 0 1-12.5 30.5l-9 18.7-10.2 13.3c-12.1 16-16.8 21.7-16.9 20.2zm-316-25.5c0-.3 3.7-3 8.2-5.9l8.3-5.3 3.7 2c2 1 3.4 2.6 3 3.5-1.2 3.2-23.2 8.6-23.2 5.7zm351.2-133-1-1.4 1.6 1c1.5.9 2 2 1 2-.4 0-1.1-.7-1.6-1.5zm-4.6-5.3-1.6-3 2.4 2.2c1.3 1.3 2 2.7 1.6 3.1-.5.5-1.5-.5-2.4-2.3z"/>
  <path fill="#f9e302" d="M88 440.7c0-.4.3-.7.7-.7.3 0 .6.3.6.7 0 .3-.3.6-.6.6a.7.7 0 0 1-.7-.6ZM280 430c0-.4.3-.7.7-.7.3 0 .6.3.6.7 0 .4-.3.7-.6.7a.7.7 0 0 1-.7-.7zM58.3 382.6c.5-1.8 1-2.4 1.4-1.4.3 1 0 2.3-.8 3.1l-1.4 1.4zm5.3 0c.5-1.8 1.1-2.4 1.5-1.4.3 1-.1 2.3-.9 3.1l-1.4 1.4zm5.4 0c.3-1.4 1.5-2.6 2.5-2.6 2.6 0 2.3 1.8-.7 3.6l-2.5 1.6.7-2.6zm3 2c0-.3.3-.6.7-.6.3 0 .6.3.6.7 0 .3-.3.6-.6.6a.7.7 0 0 1-.7-.6Zm198.7-37.3c0-.3.3-.6.6-.6.4 0 .7.3.7.6 0 .4-.3.7-.7.7a.7.7 0 0 1-.6-.7zm-140-16c0-.3.3-.6.6-.6.4 0 .7.3.7.6 0 .4-.3.7-.7.7a.7.7 0 0 1-.6-.7zm158.6-22.6c0-.4.3-.7.7-.7.4 0 .7.3.7.7 0 .3-.3.6-.7.6a.7.7 0 0 1-.7-.6zm89.4-12c0-.4.3-.7.6-.7.4 0 .7.3.7.7 0 .3-.3.6-.7.6a.7.7 0 0 1-.6-.6zm5.3-5.4c0-.3.3-.6.7-.6.3 0 .6.3.6.6 0 .4-.3.7-.6.7a.7.7 0 0 1-.7-.7Zm53.3-82.6c0-.4.3-.7.7-.7.4 0 .7.3.7.7 0 .3-.3.6-.7.6a.7.7 0 0 1-.7-.6zm-6.6-5.4c0-.3.3-.6.6-.6.4 0 .7.3.7.6 0 .4-.3.7-.7.7a.7.7 0 0 1-.6-.7zm9.3-4c0-.3.3-.6.7-.6.3 0 .6.3.6.6 0 .4-.3.7-.6.7a.7.7 0 0 1-.7-.7Zm6.7 0c0-.3.3-.6.6-.6.4 0 .7.3.7.6 0 .4-.3.7-.7.7a.7.7 0 0 1-.6-.7zm-4-1.3c0-.4.3-.7.6-.7.4 0 .7.3.7.7 0 .4-.3.7-.7.7a.7.7 0 0 1-.6-.7z"/>
  <path fill="#b3a866" d="M56.9 422a52 52 0 0 1-.9-11.5v-9.3l-2.1-4c-2.6-5.2-3.7-4.7 12.9-5.5l14.1-.7-3.6 6.8a71 71 0 0 0-5.4 14.2c-2 8.9-3.2 10.2-9.4 11.3l-4.8 1zm164.4-41.3c0-.4.3-.7.7-.7.4 0 .7.3.7.7 0 .3-.3.6-.7.6a.7.7 0 0 1-.7-.6zm2.7-1.4c0-.3.3-.6.7-.6.3 0 .6.3.6.6 0 .4-.3.7-.6.7a.7.7 0 0 1-.7-.7zm2.7-1.3c0-.4.3-.7.6-.7.4 0 .7.3.7.7 0 .4-.3.7-.7.7a.7.7 0 0 1-.6-.7z"/>
  <path fill="#be8e65" d="M11.4 474.4c-3.6-4.2-6-9.3-6-12.4v-2.7l2 4.4c1 2.4 3.4 6.4 5.4 9 3.8 5 2.7 6.5-1.4 1.7zm10.4-.3c-4.7-2-7.8-6-9.2-11.8-.5-2-1.4-3.6-2-3.6-2.2 0-1.4-5 1.2-8.2l2.5-3L19 451l4.6 3.5 3 7.3c4.7 11.6 3 15.7-4.8 12.3zm10.2-5.3a33 33 0 0 0-3.7-11.6l-3.7-7.2-6.4-3.5-6.4-3.5 11-6.4c6.2-3.5 15-8.7 19.5-11.5 9.2-5.7 9.7-5.8 9.7-3.4 0 1 1.8 2.8 4 4.1l4.2 2.5 4.2-1.6c8.5-3.2 10.3-4.5 10.3-7.4 0-6.4 4.6-17 9.9-22.7l3-3.3 2 3c1.6 2.4 11.5 21.1 15.4 29.2.5 1-13.9 9.8-18 11a14 14 0 0 0-5.3 4c-5.4 6.6-44 32.8-48.5 32.8-.7 0-1.2-2-1.2-4.5Zm79.6-48.4c-.3-.6-1.4-3.5-2.3-6.4a67.4 67.4 0 0 0-11.6-19.9l-3.2-3.8 1.4-1.4 1.3-1.3 6 1.7 5.8 1.6 4.6-2.1c4.6-2.2 10.4-10.4 10.4-14.7 0-1.2 1.6-2.9 3.5-3.7 1.9-.9 5-3 7-4.7 6.3-5.5 28.8-21.7 30.2-21.7 3.8 0 17.9 22.7 18 29v3l-4.4 2.2a84.6 84.6 0 0 0-7.6 4.5c-3.7 2.6-54.4 36.2-57 37.7-.8.5-1.8.5-2.1 0zm100.4-41c0-.4.3-.7.7-.7.3 0 .6.3.6.6 0 .4-.3.7-.6.7a.7.7 0 0 1-.7-.7zm-20.5-12c-1.5-4-.9-5.3 1.4-3l2.3 2.2-1.4 1.5-1.4 1.4zm-10-15.2c-.1-1-2.2-4.8-4.8-8.3l-4.6-6.4 13-8.3c16.8-10.7 38.9-25.6 48.7-32.7l7.9-5.7 5 4c5.4 4.4 9 9 12.5 15.5l2.2 4.4h-3.9a38 38 0 0 0-11.9 4 84.9 84.9 0 0 1-14.5 5.4c-10 2.4-12.4 3.6-12.4 6.3 0 2.7 4.5 7.3 8.6 8.8l2.7 1-5.1 2.7-5.1 2.6-5.3-2c-12.5-5-28.4-2-31.3 6-1 2.5-1.7 3.7-1.8 2.7zm82.7-50a92.5 92.5 0 0 0-11.6-13.8l-3.5-2.5 16.5-11.4c34.6-24 44.9-24.7 49.9-3.4l.8 3.8-3.1 6.3-3.2 6.3-17.8 12.6c-9.8 7-18.3 12.7-18.8 13-.6.2-4.7-4.7-9.2-11z"/>
  <path fill="#6991a3" d="M441.3 476.7c0-.4.3-.7.7-.7.4 0 .7.3.7.7 0 .3-.3.6-.7.6a.7.7 0 0 1-.7-.6zm-85.3-2.5a85.2 85.2 0 0 1-22.7-6.2c-.3 0-.8-.7-1-1.8-.7-3 7.6-8.5 14.9-10.2l6.4-1.4 2 1.6c5.4 4.5 20.3.5 23.3-6.3.9-1.8 2.2-3.1 3-3 2.1.3 13.8-5.1 21.4-10a58.3 58.3 0 0 1 60-1.7l7.9 4.8 1.7 4.2 1.8 4.2-1.3 1.5c-.7.9-4.8 3-9 4.6l-12.1 5c-7 3.1-20.3 7.3-27 8.5a208 208 0 0 0-16.6 4l-10.7 2.8-15.3.5c-8.5.3-20.5-.2-26.7-1.1Zm101.3-2.9c0-.3.3-.6.7-.6.4 0 .7.3.7.6 0 .4-.3.7-.7.7a.7.7 0 0 1-.7-.7zm2.7-1.3c0-.4.3-.7.7-.7.3 0 .6.3.6.7 0 .4-.3.7-.6.7a.7.7 0 0 1-.7-.7zm2.7-1.3c0-.4.3-.7.6-.7.4 0 .7.3.7.7 0 .3-.3.6-.7.6a.7.7 0 0 1-.6-.6zm2.6-1.4c0-.3.3-.6.7-.6.4 0 .7.3.7.6 0 .4-.3.7-.7.7a.7.7 0 0 1-.7-.7zm2.7-1.3c0-.4.3-.7.7-.7.3 0 .6.3.6.7 0 .4-.3.7-.6.7a.7.7 0 0 1-.7-.7zm-311.7-17.8-1.8-1.1 7.4-9c8.5-10.4 8.8-10.3 3.8 2.1l-3.7 9.1h-2a8 8 0 0 1-3.7-1.1zm-12.5-2c-1.7-1-3.1-2.5-3.2-3.6 0-1-.4-2.6-1-3.4-1.1-2 1.2-16.3 3.7-22.4 1.1-2.6 1.9-5.2 1.7-5.9-.4-1.4 9.1-12 15.6-17.3 4.8-4 17.8-8.8 24.9-9.3l7.5-.6 3.5 2.3 3.5 2.3-8.1 8.7c-4.5 4.8-9.9 11.5-12 14.8a45 45 0 0 1-8.4 9.8 108 108 0 0 0-12.8 14.6c-8.8 11.7-10 12.4-14.9 10zm327.3-9.5-2.7-3.8 4.7-10.8a111 111 0 0 0 9.6-38.8L484 370l-1.5-14.7-1.4-14.6-5.2-16c-8.3-25.1-28.6-60.6-38.2-66.7l-4.3-2.7v-9.7c0-11.8-1.1-14-8-16.7l-5.2-2.1.7-2.6.7-2.5 6.6-.8c10-1.2 18.7-7.6 21.4-15.8.3-.8 3.9-1.8 8-2.1l7.4-.6 7.8 2.2c10.8 3.2 18.9 7.6 37.5 20.7l16.2 11.3 2 4.4c1.2 2.5 2.8 4.1 3.5 3.7.7-.5 1.3.1 1.3 1.3 0 1.1.8 2.4 1.8 2.8a3 3 0 0 1 2 2.3c0 .8.5 4 1 6.9.5 3 1.1 14 1.5 24.8l.6 19.4-2.1 8.1a64.1 64.1 0 0 0-2.1 13.3c0 2.9-.5 5.8-1.2 6.5-.7.7-3 6.6-5.3 13.2s-6.7 17-9.8 22.9c-13 24.6-14.4 27.5-14.4 29.2 0 1-1.5 3.5-3.3 5.7-1.8 2.2-3.3 4.8-3.3 5.8s-5 7.9-11 15.3a322 322 0 0 0-12.4 15.9l-1.4 2.3z"/>
  <path fill="#f98903" d="M56 383.2c0-1.7 5.1-7.9 5.9-7 .3.2-1 2.3-2.7 4.5-1.7 2.2-3.2 3.3-3.2 2.5zm5.3 0c0-1.7 5.1-7.9 6-7 .2.2-1 2.3-2.7 4.5-1.8 2.2-3.3 3.3-3.3 2.5zm5.4 0c0-.8 1.2-2.9 2.7-4.6l2.8-3.2 1.2 2c.7 1 1.2 3.1 1 4.6v2.7l-.7-2.4c-.3-1.2-1.2-2.3-2-2.3s-2.2 1-3.2 2.3c-1 1.3-1.8 1.7-1.8.9z"/>
  <path fill="#6e9661" d="M312 462.6a69.3 69.3 0 0 1-12.4-2.5c-2-.8-7-1.4-11-1.4-3.9 0-7.5-.6-8-1.4-1-1.8-3.2-.4-4.6 3.2l-1.2 2.8v-3c-.1-1.8.5-4.4 1.3-6 .9-1.4 2.6-6.5 4-11.2a135 135 0 0 1 11.5-27.1c.3 0 4.2 3 8.7 6.8a148 148 0 0 0 13.3 10l5.2 3.3-.9 4.6-.9 4.6 2.2 3.4 2.2 3.3 6 1.5c7.7 2 8.5 3.4 3.8 7.3-4.1 3.3-5.6 3.4-19.2 1.8zm44.7-9.3-2.6-2.8-2.7.9c-1.5.5-4.2 1-6 1.3l-4.7.7a48 48 0 0 1-18.5-6c-.3-.9 0-4.6.7-8.2l1.6-9.2c1.4-10 15.5-42 20.2-46l2.2-1.9 2.4 3.2 2.3 3 4.4-1.4c8.2-2.9 13.3-1.2 9.6 3.2-.6.7-.7 10.2-.2 21.2l1 20 2.7 6.2a25 25 0 0 0 4.1 7.1c4.7 3-.5 9.3-8.6 10.7l-5.4.8zm-3.6-9 2.8-6.3v3.6c0 3.1 2.2 6.2 3.3 4.9.3-.3.8-6 1.3-12.8l1-12.4h-2c-1 0-2.5 2.4-3.3 5.3a106 106 0 0 1-4.2 11l-2.6 5.7-.2-4.6a84 84 0 0 1 5.5-36.7c3.2-6.6 3.2-7.3.7-7.3-5 0-10 19.1-10 38.4 0 18 2.8 22.3 7.7 11.2zM176 452.5a13 13 0 0 1-6.7-5l-2-3.6 6-11.6 8-16.2c1-2.5 6.7-9.5 12.5-15.6l10.4-11 3.6.7 3.6.7 8-4.8c7.2-4.3 20.6-9.4 20.6-7.9 0 .4-4.1 5.3-9.2 11-13.7 15.6-34.1 48.8-39 63.5l-.9 2.6-.1-2.6-.2-2.7-1.2 2c-1.5 2.4-7 2.6-13.4.5zm200.5-10.4a20 20 0 0 1-5-8l-2.4-6 .5-17.6.4-17.6 1.7-.6c.9-.3 1.6-1.6 1.6-2.8 0-1.3 2.2-4.4 4.9-7 6.7-6.3 18.2-24.3 26.2-41 13.6-28.5 22.4-40.6 33-45.3l6-2.7 1.6 2.9 1.7 3-.3-4-.4-4-3-.5c-3.6-.5-13 4.9-19.6 11.3-6.9 6.7-6.8 6.2 1-18 8.3-25.8 10.6-27.6 19.3-14.6 37.6 56 44.9 99.5 25.5 151.6-3.4 9.3-3.8 9.8-5.7 8.4-2.8-2.1-16.1-4.7-28-5.5l-12-.8 7-5.8c11-9.3 32.2-43.3 32.2-52 0-4.7-2.9-2.7-4.7 3.2-7 23-36 54.3-64.4 69-11.8 6.1-13.8 6.7-17.1 4.4zm75.7-26.3c4.2-1.5 8.6-3.9 9.9-5.2l2.3-2.5-1.7-2-1.7-2-3.5.7-3.5.8 7-4.8c3.8-2.7 8-6.7 9-9l2.2-4.1-1.6-1.5-1.6-1.5-.7 1.8c-1.5 4.1-9 11-15.6 14.2-8.2 4-11.7 7.3-10.2 9.6l1 1.7 4.6-1.4c6.9-2 9.3-1.3 3.2.8-2.9 1-6.5 2.5-8 3.1a58 58 0 0 1-5 2c-3.8 1.2-1.3 3.6 2.8 2.7 2-.4 7-2 11.1-3.4zm-83.6-33.3-1-1.5-7.3.8-7.4.7-3.3-2.6-3.3-2.6-1.8 1.5-1.7 1.4-8.1-6.7a111 111 0 0 0-10.7-8.2c-3.7-2-3.3-3.6 3-12.5l5.7-7.8 4.6-1.7 21.4-7.7a335 335 0 0 0 20.6-7.8c2.2-1.1 9.6-4 16.3-6.5 13.9-5 14.8-6 10.9-12.6-3.8-6.4-1.7-5.8 9.4 2.8a32 32 0 0 1-4.2 8.1c-2.6 4.3-7.1 12.5-10 18.4-12.6 25.7-30.2 49.3-33.1 44.5zM270 339.1c-.6-1.4-1.5-5.6-2-9.5l-.8-7 7-5.3c7.8-5.9 9-6.4 7.3-3a79 79 0 0 0-6.1 16.1 38 38 0 0 1-2.7 7.7l-1.7 3.3zm76.7-7.3 15.1-13.6c5.8-5.3 12.3-11 14.6-12.9 10-8.1 27.7-26.1 29.2-29.5 1-2.1 2.2-3.8 2.7-3.8.6 0 1-1.2 1-2.7 0-1.4.5-2.6 1-2.6 1.2 0 8.8-20 11-28.9l1.4-5.5 2.6.6c1.4.4 3.3 1.6 4.2 2.6l1.5 1.9-.7 9.6-.7 9.7-7.6 22.6a700.2 700.2 0 0 1-8.2 23.6c-.3.6-3.4-.5-6.8-2.3-9.8-5.3-12.1-3-6.1 6.1 1.9 3 3.2 5.7 2.8 6-1 1.1-41 16.5-51.7 20l-10 3.2zM200 311c0-12.2-16.7-31.1-27.4-31.1-7 0-4.7-7.2 2.6-8.6l4.7-.8 3-4c6.4-8.4 8.6-10.2 14.3-11l5.8-1 2 1.6c5.1 4.4 15.1 29.5 14.9 37.7l-.1 4.1-1.2-3.8c-1.2-4-6.2-10.2-8.2-10.2-.6 0-1.1 2.3-1.2 5l-.1 5-1-2.7c-1.9-6-7-14-8.8-14-2.6 0-2.5.6 1.2 7.1a77 77 0 0 1 5.5 12.6c3.4 10.6 5.1 10.6 7.3 0l1.2-5.7-.3 7.2-.2 7.2-5.3 3.6-7 4.6-1.7 1V311zm25.3-15c0-1.5 5.3-4.6 6.2-3.7.3.3-1 1.6-2.8 2.8-1.8 1.2-3.4 1.6-3.4.9zm-1.9-8.3-2.6-8.1a115.2 115.2 0 0 0-14-27.6l-2.5-2.5 7.2-5.4c4-3 10.3-6.3 14-7.6l6.7-2.2 2.6 2.4c7.4 6.7 19.3 6.7 34.7 0 6.3-2.7 12.9-5.2 14.6-5.5 1.7-.3 5.1-1.6 7.6-2.7l4.6-2.2 1.3 1.3c.7.7 1 2.7.8 4.5l-.4 3-10.3 6.8c-10.7 7-12.5 10-7.7 13 3.5 2.2 3.4 2.7-1.7 5.6a101 101 0 0 0-9.5 6.6c-3 2.3-7.2 5.3-9.6 6.8a254 254 0 0 0-10.5 7l-6.2 4.4 1-3c3-10 14.2-27.7 20-31.7 5-3.3 5.6-5 2.4-6.2l-2-.8-4.2 3.8c-2.2 2.1-7 8.3-10.6 13.8l-6.4 10v-4c0-2.2.6-4.8 1.2-6l1.3-1.9-1.4-1.7c-3.5-4.2-6.5 4.2-5 14.1.4 3.3.5 7.4.1 9.2l-.6 3.3-4.1 1.7c-2.3 1-5.6 2-7.2 2.6l-3 1-.6-1.8zm61.5-34.5-2.2-2.7 9-5.7 8.8-5.7 4 4.4c2.1 2.5 3.5 5.3 3 6.4l-.7 2H300c-3.7 0-8.1.9-9.8 2l-3 2z"/>
  <path fill="#9c734b" d="M96.8 409.8c-4.8-9.3-8.6-17.1-8.3-17.4.6-.6 7.5 9.9 7.5 11.6 0 1.7 7.7 15.8 10.3 18.9 1 1.2 1.3 2.5.6 3a62 62 0 0 1-10-16.1zm7.9.7a144 144 0 0 0-8.8-15.6c-3.4-4.4-3.2-7.1.2-2.9 8 9.7 17.4 28.3 15.3 30.3-.3.4-3.3-5-6.7-11.8zm78-37.4c-.1-4.8-4.5-13.4-11.2-21.9-3.3-4.3-5.8-8-5.4-8.4 1-1 6.2 5.4 13.9 16.9l6.4 9.6-.7 2.7c-1 4-3 4.7-3 1zm6.6-4.6a114 114 0 0 0-16.3-25.3c-2.2-2.5-3.2-4.7-2.4-5.1 1.2-.8 8.7 8.2 10.5 12.5.8 2.1 3.7 5.8 7 9.2 1.3 1.2 2.7 4.1 3.2 6.5l1 4.4h-1.5c-.8 0-1.5-1-1.5-2.2zm72.8-51.9c-1.4-1-2.2-2-1.7-2 2.3 0-5.3-11.6-11.4-17.5-3.7-3.5-6.4-6.8-5.9-7.3 1.3-1.3 5.6 3 14.7 14.7 9.6 12.4 11.4 17.5 4.3 12.1zm1.4-11.6a166 166 0 0 0-11.5-14.1c-4.6-4.6-3.6-5.7 1.5-1.7 4 3.1 19.1 24 18.1 25-.4.4-4-3.8-8-9.2z"/>
  <path fill="#5c5c5c" d="M217.3 378c0-.4.3-.7.7-.7.4 0 .7.3.7.7 0 .4-.3.7-.7.7a.7.7 0 0 1-.7-.7zm25.5-137.3c-3.2-.8-7.1-3-8.7-4.8a48 48 0 0 0-16-11.9h-2l-2-7a54.5 54.5 0 0 0-3.3-9l-1.3-1.8-.8 5.2c-2.6 15.4-5 3.9-4.3-19.4l.7-16.7 2.8-7.9a87.2 87.2 0 0 1 29.7-40.2l7.7-5.6-5.3-4.4c-6.8-5.7-6.7-6.3 1.2-5.5 16 1.5 43.4-4.2 55-11.5l6.1-4 1-3.6.9-3.7-2.5-3.5c-2.8-3.7-15-12.5-16-11.5-.4.3 0 2.4.7 4.6 1.6 4.7.6 6.4-1.9 3.1l-1.8-2.3.8 6.3a25 25 0 0 1 0 8.5l-.9 2.2-4.2-8.5-4.3-8.5-.9 4.4C271.4 92.5 265.4 96 252 96c-11.4 0-18 2.5-23 8.7-4.4 5.3-7.5 5.8-11.1 1.8l-2.6-2.8.2-5.8c.1-7.6 3-11.6 11.5-16.1l7-3.8.4-2.9c.2-1.6 2.8-4.4 5.7-6.3 13.7-9 18-25.4 5-19-2.3 1.3-4.4 2-4.7 1.7-1.5-1.5 4.3-9.2 8.4-11.1l4.6-2.3 5.3 1.4L264 41l3.5-4.9C276.2 24.4 300 4 305 4c1 0-1.8 5.2-6.3 11.6-8.6 12.4-9.3 14.3-5.7 15.7l2.3 1-4.5 2.1c-2.5 1.3-4.8 3-5.1 3.9l-.6 1.6 6.5-1.8 10.2-2.7 3.8-.8-1 1.4-.8 1.4 3-.7 9.2-2c3.3-.8 15.3-1.7 26.7-2l20.6-.8-2.6 1.3c-1.5.7-5.8 2.2-9.6 3.3-3.8 1.2-11.3 4.2-16.7 6.7l-9.7 4.6h5.6c11.8.3 28.6 5.5 17.5 5.5a42 42 0 0 0-11 2.2l-6.2 2 3.9 5c5.8 7.4 10 14.6 14.1 24.5l3.8 9-1.3 1.5-1.4 1.3-4.8-6.5c-6-8.2-16.2-17.6-18.9-17.6h-2l1.9 3.7c1 2 3.1 7.3 4.6 11.8l2.7 8-1.7 5.6c-1 3.2-3.7 7.6-6.2 10-2.6 2.5-8 8-12 12.2-16.4 17.2-31.1 28.1-42.3 31.4-7.2 2.1-8.4 1-3.5-3.3l3.8-3.3H267c-9.7-.2-16 6.7-19.8 21.7l-2 8 .8 6.4.9 6.4-1.8-.7c-1-.4-4.1-3.7-7-7.3-6-7.6-7.2-7-3.5 1.6 4.8 11.3 16.7 18.8 26.4 16.6l3.8-.9-3.8 3.4a20 20 0 0 1-7.7 4.2c-3.8.8-5.5 3.2-2.2 3.1 10.3-.1 32.5-8 39.8-14 3-2.6 6.8-4.6 8.6-4.6 4.2 0 7.4-1.4 6.5-2.8-.4-.7.9-1.2 2.8-1.2s4.6-.6 6-1.3l2.4-1.3 1.6 1.9c5.4 6.5-1.3 26-8.9 26-1.6 0-4 1.4-5.4 3.1-1.3 1.7-4 4-5.8 4.9-1.8 1-3.6 2-4 2.5a27.8 27.8 0 0 1-10.4 4.8c-1.8.3-8.4 2.8-14.7 5.5-12.5 5.4-17.8 6.2-26.7 3.9zm13.8-170.8c2-2.6 3.4-5 3-5.3-.7-.8-10 6.3-10.8 8.4-1.6 3.7 4.4 1.4 7.8-3zm55.4 86.8c0-.4.3-.7.7-.7.3 0 .6.3.6.7 0 .3-.3.6-.6.6a.7.7 0 0 1-.7-.6z"/>
  <path fill="#f41205" d="M320 430c0-.4.3-.7.7-.7.3 0 .6.3.6.7 0 .4-.3.7-.6.7a.7.7 0 0 1-.7-.7zm16-40c0-.4.3-.7.7-.7.3 0 .6.3.6.7 0 .4-.3.7-.6.7a.7.7 0 0 1-.7-.7zm-279.7-5c-2.1-2-2-3.9.3-8.4l2-3.8-1.7-2-1.6-1.9 3 1.5c1.5.9 3.2 2.3 3.6 3.3.4.9.5.3.2-1.3l-.5-3 2.4 1.3c1.3.7 2.8 2 3.2 3 .5.9.6.3.3-1.4-.8-3.9-.2-3.8 4.5 1 4.5 4.6 5.1 9.5 1.7 12.1l-2.4 1.8 1.7-1.9c2-2.2 2.1-5.2.4-8l-1.2-1.9-2.8 3.2c-3.2 3.7-3.3 4.3-1.1 6.5l1.6 1.6h-1.6c-2.4 0-3.5-6.4-1.6-8.7 2.6-3.2-.1-2.3-2.9.9-2.9 3.3-3 4-.9 6.2l1.6 1.6H63c-2.4 0-3.6-6.4-1.7-8.7 2.7-3.2 0-2.3-2.8.9-3 3.3-3 4-.9 6.2.9.8 1.3 1.6 1 1.6-.4 0-1.5-.8-2.3-1.6zm17-12.3c0-.4.3-.7.7-.7.4 0 .7.3.7.7 0 .3-.3.6-.7.6a.7.7 0 0 1-.7-.6z"/>
  <path d="M18.9 481.2c-5.5-1.1-13-8.2-14.8-13.8-2-6.4-3-16.5-2-19.4a48 48 0 0 1 16.1-12c.5 0 5.2-2.6 10.4-5.8a212 212 0 0 1 15-8.7c11.7-5.9 13-11.4 6.4-25.3-5.1-10.7-5.1-11.3.6-13.3l3.9-1.4.7 2 .7 1.8h-6.6v4l11-.7c16.3-1 22.4-2 22.4-3.3 0-.7-1.5-1.3-3.4-1.3H76v-4h8v-3.3c0-1.8.7-6.4 1.5-10.2l1.5-7 4.8-4.9 4.9-4.9 10-4c5.5-2.3 12.5-4.8 15.7-5.6l5.7-1.6 3.7-7.6a189 189 0 0 1 21.4-35c8-9.2 12.1-16 12.1-20v-3.7l3-2.1c1.6-1.2 4.2-2.1 5.8-2.1 3.7 0 9.3-4.4 11.5-9l1.8-3.7 8-4a92.8 92.8 0 0 0 13.3-8.2c9-7.1 23.3-13.3 23.3-10 0 .7-3 2.3-6.6 3.6a61 61 0 0 0-13.9 7.5l-7.2 5.4 2.5 2.5a118 118 0 0 1 14.5 29.1l2.4 7.5 2.8-.4c1.6-.1 4.9-1.1 7.3-2.1l4.5-2 .6-3.2c.4-1.8.3-6-.2-9.2-1.4-9.9 1.6-18.3 5-14l1.5 1.6-1.3 2c-.6 1-1.2 3.7-1.2 6v4l6.4-10a96.7 96.7 0 0 1 10.6-14l4.1-3.7 2.1.8c3.2 1.2 2.5 2.9-2.3 6.2-5.9 4-17 21.6-20.2 31.7l-1 3 6.3-4.4a254 254 0 0 1 10.5-7c2.4-1.5 6.7-4.5 9.6-6.8a101 101 0 0 1 9.5-6.6c5.1-3 5.2-3.4 1.7-5.6-4.8-3-3-6 7.7-13l10.3-6.7.5-3.3c.2-1.8-.5-3.8-1.7-4.7l-2-1.6 3-1.4c4-1.8 5-1 4 3.8l-.8 3.8 3.4 5.7a47 47 0 0 0 10.2 11c6.6 4.9 14.7 15 14.7 18 0 .8.8 2.6 1.7 4.1l1.7 2.7-2 1.3-2 1.2-2.2-6.8a29.4 29.4 0 0 0-4.4-9l-2.2-2.1-1.3 2c-.7 1.1-1 2.7-.7 3.6 1.9 5 2.1 11.4.7 16.5l-1.5 5.9-5.3 5-5.2 5-.8 5.8-.8 5.8 2.4 5c1.3 2.7 3.8 5.9 5.5 7l3.2 2.1 7.3-.8 7.4-.7 7.6-4.3c4.2-2.3 9-5.4 10.7-6.7 1.7-1.3 3.8-2.1 4.7-1.8 1 .4 7-1.8 13.6-4.8l11.9-5.5 10.1-10 10.2-9.8 5.7-10c3.2-5.6 7.2-14 9-18.9l3.1-8.7-.8-4.3a25 25 0 0 1 .6-9.4l1.4-5-3.3-4c-3.2-3.8-4.3-7.7-2.2-7.7.6 0 2.4 1.8 4 4l3 4h5.6c3.3 0 7.8-1.2 11-3l5.3-3 3-6c1.6-3.3 3-8 3-10.4v-4.4l-3.3-3.2c-4.9-5-19-3.6-22.1 2.2l-1.4 2.6-2.7-3.4c-1.5-1.9-4-3.4-5.9-3.4-5.1 0-5-2.2.4-7.6 2.8-2.8 6.2-7.5 7.6-10.3l2.4-5.2-1.5-8.1-1.5-8.2 1.4-4.8c.7-2.6 2.5-6.3 4-8.2 3.1-4 3.2-4.9.7-4.9-1 0-3-1-4.2-2.3l-2.4-2.4-12.6-.6-12.7-.7-.5-1.6c-.3-.9 1.7-2.6 4.4-3.7 7-2.9 5.3-3.5-5.5-2.2-5.1.6-9.7.9-10.3.6-2-1.2-.8-3.2 3.4-5.1l4.3-2-12 .8c-11.8.7-20.7 3.2-20.7 5.7 0 .8-3.9 3.6-8.6 6.2-9.8 5.5-10.5 6.6-4.5 7.8l4.2.9 4.6-2.7c5.4-3.2 5.7-3.3 5.7-.8 0 2.7-5.3 6.1-9.6 6.1-2 0-4 .6-4.5 1.4-.4.8-2.7 1-5.3.5l-4.4-.8-1.5 2.7c-.7 1.5-1.4 3.4-1.4 4.2v1.5l3-.9c1.6-.5 4.6-1.7 6.7-2.6 5.6-2.7 5.5-.1 0 2.7l-5 2.5 3.2.5c5 .8 9.4 4.3 9.4 7.5v2.8l-6.3-.4-6.3-.5-3.5-4-3.4-4.2-10.4 9.9c-12.3 11.7-14.9 16.3-15.9 28.5l-.8 9.4 1.1-4c2.5-9.4 7.9-14 16.3-14h3.9l3.4 5.4 3.4 5.4 3.4-2.2c3.7-2.4 5.2-1.9 4 1.3-2.2 5.8-9 5-12.8-1.4l-2.6-4.5h-8.2l-4 4.3c-2.2 2.3-4 5-4 6 0 3.2-.1 3.7-2 4.7-4.7 2.7-5.7-7.7-2-21.3l1.4-5.5 9.4-10.3c5-5.6 10.8-11.4 12.6-12.8a43 43 0 0 0 7.7-11.4l4.3-8.8 4.2-1.8c5.5-2.3 6-3.2 4.2-8.2l-1.6-4 2.4-5.4c3.5-7.6 10.4-12.5 23.8-16.8l11.7-3.8 11.2.8C410.4 85.6 432 92 438.7 98a61 61 0 0 0 9 5.3l7 3.5 2.8 5.5c1.6 3 4 8.9 5.5 13l2.6 7.4.7 14.8c.9 18 .3 20.4-6 27.6-7.7 8.4-9.3 11.7-9.1 18.2l.1 6 13.4 1.6 13.3 1.5 6 3 8.7 4.3c5.2 2.5 42 29.4 42 30.6a24 24 0 0 0 4.1 6.5c4.8 6.1 7.9 13.7 12 29.3l2.8 11.2-.6 15.4-.7 15.3-3 9.3a233.2 233.2 0 0 1-54.5 90 87.3 87.3 0 0 0-8.8 11.3c-2.5 3.7-6 8.5-7.8 10.7l-3.2 3.9 4 8.4c3.3 7.1 4.2 14.8 1.4 12-.5-.5-5.4 1.5-11 4.5-5.5 3-14.5 7-20 8.9l-10 3.4-26.7.6c-25.1.6-51.5-.6-80.7-3.7-7-.8-30-2-51.3-2.7-39.8-1.3-64.5-2.8-91.4-5.3a2110.7 2110.7 0 0 0-61.8-4.9l-10.5-.8.7-8.9a78 78 0 0 1 8.2-28c2.3-2.8 7.3-13.4 6.3-13.4a566.5 566.5 0 0 0-54.6 35.8 259.5 259.5 0 0 1-37 24.4c-14.5 8.1-16.6 8.8-21.7 7.7zm429.8-6.7a106 106 0 0 0 19.8-8.5 61 61 0 0 1 9-4.7c2 0 1.2-4.5-2.7-13l-3.7-8.3-7.9-4.8a58.3 58.3 0 0 0-60 1.7 73.7 73.7 0 0 1-21.3 10c-.8-.1-2.1 1.2-3 3-3 6.8-17.9 10.8-23.3 6.3l-2-1.6-6.5 1.4-6.6 1.4-8.1 6.7a48.7 48.7 0 0 0-8.9 8.6l-.7 2h2.2c1.3 0 9.5.6 18.3 1.4 32.6 2.9 43.3 3.3 68 2.8l25.4-.6 12-3.8zm-436-1.8a63 63 0 0 1-5.4-9l-1.9-4.4v2.7c0 3.1 2.4 8.2 6 12.4 4.1 4.8 5.2 3.3 1.4-1.7zm16.4-.6a29 29 0 0 0-2.5-10.3l-3-7.3L19 451l-4.7-3.6-2.5 3.1c-2.6 3.2-3.4 8.2-1.3 8.2.7 0 1.6 1.6 2.1 3.6 2.6 10.4 15.3 18 16.5 9.8zm291.5 0c.5-1.5 3.9-5.4 7.6-8.7 7.6-6.8 7.5-7.8-.8-10l-6-1.4-2.2-3.3-2.2-3.4.9-4.6.9-4.6-5.2-3.3c-2.9-1.8-9-6.4-13.5-10.1a48.4 48.4 0 0 0-8.7-6.5c-1.8 2-7.8 15.7-10 23.2a315 315 0 0 1-4.7 14c-1 2.5-2.1 7.8-2.4 11.6l-.6 7 1.5.2c3.2.3 31.2 2 37.7 2.2l7 .3zm-276.4-4.3a240.3 240.3 0 0 0 37-26.9c1-1.4 3.7-3.3 6-4.3 5.7-2.4 16-8.8 49.7-31.4 16-10.7 31.8-21 35.1-23 25.3-15.4 24.7-14.9 18.9-19.8a37.4 37.4 0 0 1-6.1-6.7l-2.3-3.4 1-3.5c1.7-7.1 19.1-10.1 31-5.4l5.3 2.1 5-2.6 5.2-2.7-2.7-1c-4.1-1.5-8.6-6-8.6-8.8 0-2.7 2.4-3.9 12.4-6.3 3.6-.8 10.1-3.3 14.5-5.5 9-4.5 12.5-4.8 16.9-1.8l3 2.1 6.3-4.4 22.3-15.7 15.9-11.3 3.2-6.3 3.1-6.3-.8-3.8c-2.6-11-7-15.1-15.8-15.1-6.2 0-14 4.5-44.7 25.9-34.4 24-55.3 38-71.1 48a224 224 0 0 0-16.7 11.4c-2.3 1.8-10 7.6-17.3 12.7a259.3 259.3 0 0 0-15.9 12 28.1 28.1 0 0 1-6.4 4.3c-2 1-3.6 2.6-3.6 3.8 0 4.3-5.8 12.5-10.4 14.7l-4.6 2.1-5.6-1.6-5.7-1.5-4.5 2.2a38 38 0 0 0-18.5 29.3c0 3-1.8 4.2-10.3 7.4l-4.2 1.6-4.1-2.5c-2.3-1.3-4.1-3.1-4.1-4 0-2.5-.5-2.4-9.7 3.3l-19.4 11.5-11.1 6.4 6.4 3.5 6.4 3.5 3.7 7.2c2 3.9 3.7 9.1 3.7 11.6 0 5.7.4 5.7 12.2-1zm227-4a53 53 0 0 1 3.5-14.1c1.5-3.4 3.6-9.7 4.7-14.1a86.6 86.6 0 0 1 5.4-14.5c4-8 4-9.2-.3-13.2-2-1.8-9.1-10-16-18.2-14-16.8-15-17.6-17-14.8-.8 1.1-3.3 3-5.5 4.1a106.6 106.6 0 0 0-24.7 26.3c-3.2 4.8-7.8 11.3-10.2 14.5a29.8 29.8 0 0 0-4.4 6.9c0 .6-2.4 6.1-5.2 12.2-5.8 12.3-11.4 27.7-10.4 28.6.7.7 53.5 4 68.4 4.3l10.8.2zm-82-3.3c1.6-3.4 2.8-6.8 2.8-7.7.1-7 25.1-48 38.8-63.6 5-5.7 9.2-10.6 9.2-11 0-1.5-13.4 3.6-20.6 8l-8 4.7-3.6-.7-3.6-.8-10.4 11.1a97 97 0 0 0-13 16.3 719 719 0 0 1-7.5 15.2c-4.8 9.4-8.1 19.3-9.8 29l-.7 4.2 7.6.5 11.9.7 4.2.3zm-28-4.5c.8-5.1 3-12.7 4.8-16.8 4.9-11 4.2-11.2-4-1.2-8.8 10.7-9.5 12-11.2 19.5l-1.3 5.8 1.6 1c.9.5 3.1 1 5 1h3.5l1.5-9.3zm-14.2 2 .7-6.2 6.5-9.5c3.5-5.2 10.2-13.3 14.8-17.9a107 107 0 0 0 11.6-13.6c1.8-2.8 7-9 11.4-13.8l8-8.6-3.5-2.3-3.5-2.3-7.5.6c-7.3.5-24.2 7-24.2 9.1 0 .6-1.2 1.5-2.7 2-13.6 4.3-36.5 39.1-38.3 58l-.6 7.6 9.8 1.3c5.4.8 11.4 1.4 13.3 1.5l3.5.2zm225.3-5.6c2.6-2.3 3.1-6.3 1-7.7-.9-.5-2.7-3.7-4.2-7l-2.8-6.3-.9-20c-.5-11-.4-20.5.2-21.2 3.7-4.4-1.4-6.1-9.6-3.2l-4.4 1.5-2.3-3.1-2.4-3.2-2.2 1.9c-4.7 4-18.8 36-20.2 46l-1.6 9.2c-.7 3.6-1 7.3-.7 8.2.6 1.6 16 6.6 18.5 6a50 50 0 0 1 4.6-.7c1.9-.3 4.6-.8 6-1.3l2.8-.9 2.6 2.8 2.5 2.8 5.4-.8c3-.5 6.4-1.9 7.7-3zm-25.6-4.2c-5.2-9.7 2-53.4 8.7-53.4 2.5 0 2.5.7-.7 7.3a84 84 0 0 0-5.5 36.7l.2 4.6 2.6-5.7a106 106 0 0 0 4.2-11c.8-2.9 2.4-5.3 3.4-5.3h1.8l-.9 12.4c-.5 6.8-1 12.5-1.3 12.8-1.1 1.3-3.2-1.8-3.2-5V438l-2.9 6.3c-3 7-4.3 7.7-6.4 3.8zm47-10.4c28.2-14.7 57.4-46 64.3-69 1.8-6 4.7-7.9 4.7-3.1 0 8.6-21.2 42.6-32.3 52l-7 5.7 12 .8c12 .8 25.3 3.4 28.1 5.5 2 1.4 2.3 1 5.7-8.4 19.4-52.1 12.1-95.5-25.5-151.6-8.7-13-11-11.2-19.3 14.7-7.8 24.1-7.9 24.6-1 17.9 6.6-6.4 16-11.8 19.7-11.3l2.9.4.4 4 .3 4-1.7-2.9-1.7-3-6 2.8c-10.5 4.7-19.3 16.8-33 45.3-8 16.7-19.4 34.7-26.1 41-2.7 2.6-4.9 5.7-4.9 7 0 1.2-.7 2.5-1.6 2.8l-1.7.6-.4 17.6-.5 17.5 2.3 6c4.3 11.2 7 11.6 22.2 3.7zm43-19c-.5-.8.2-1.7 1.5-2.2a58 58 0 0 0 5.1-2l8-3c6.1-2.2 3.7-2.8-3.2-.9l-4.6 1.4-1-1.7c-1.5-2.3 2-5.6 10.2-9.6 6.6-3.2 14.1-10 15.6-14.2l.7-1.8 1.6 1.5 1.6 1.5-2.1 4.1a33.9 33.9 0 0 1-9.1 9l-7 4.8 3.5-.8 3.5-.8 1.7 2 1.7 2-2.3 2.6c-3.8 4.2-23.9 10.6-25.4 8zm49.3 5.5a884.6 884.6 0 0 0 29.2-37.6l10.5-14 9.1-18.6a237 237 0 0 0 12.5-30.5l3.4-11.8V301c0-20.9-7.5-43.4-19-57.8a174 174 0 0 0-59-38.6l-7.7-2.2-7.5.6c-4 .3-7.6 1.3-7.9 2-2.7 8.3-11.3 14.7-21.4 15.9l-6.6.8-.7 2.5-.7 2.6 5.3 2c6.8 2.8 7.8 5 7.9 16.8v9.7l4.3 2.7c9.6 6 29.9 41.6 38.2 66.8l5.2 15.9 1.4 14.6L484 370l-1.3 13.3a111 111 0 0 1-9.6 38.8l-4.7 10.8 2.7 3.8 2.8 3.7 1.4-2.4c.7-1.3 5.6-7.5 10.7-13.8zm-165.5 6.1c2.5-9 7.8-22.5 13-33a40.7 40.7 0 0 0 5.3-14.4c-5.4-9.6-43.4-30.6-59.5-32.8l-6.6-1-3.2-4.7a33.6 33.6 0 0 1-4-11.6c-2-14-6.1-16.1-19.3-10.2-5 2.2-12.3 4.9-16.4 6-9.2 2.4-9.5 2.7-5.2 5.5l3.4 2.2 5.5-.8c3-.5 7.3-1.8 9.5-3l4-2 1.4 1.4c.8.7 1.2 1.5.8 1.7l-9.2 5c-4.8 2.5-11.2 6.2-14.3 8.3l-5.7 3.9-4-3-4.1-3-9-.5-8.9-.5-2.5 1.9c-5 3.8 4.2 8 21.1 9.8l8.3.8 6.4-2.8c7.2-3.2 8.7-3.4 8.7-1.4 0 .7-3.3 2.9-7.3 4.7l-7.4 3.4-10.3-1.6c-5.7-1-13.2-2.7-16.7-4-7.6-2.8-9.3-1.3-3.3 3.1a51.7 51.7 0 0 0 38.3 7.6c5.5-1.5 8.4.4 4 2.7-1.5.8-6 1.8-9.7 2.2l-7 .7-6.6-2-6.7-2.1 3.4 2.6c3.6 2.7 6.5 3.2 16.3 2.7l6.3-.3v1.4c0 .8-1.6 1.8-3.6 2.2a62 62 0 0 0-7 2c-1.9.7-7 1.9-11.3 2.6a29 29 0 0 0-9.2 2.6l-1.3 1.3 1.9.5 6.4 2 4.6 1.5 9.4-5.2a83 83 0 0 1 16.1-6.8 101 101 0 0 0 19.5-7.6c.5-.2 2.5 2.3 4.4 5.6a259 259 0 0 0 37.6 40.7c3.8 4.5 20.2 17.3 22.2 17.4.6 0 1.3-.7 1.5-1.7zM68.8 421a31 31 0 0 0 3.1-8.9 71 71 0 0 1 5.4-14.2l3.6-6.8-14.1.7c-16.6.8-15.5.3-12.9 5.4l2.1 4.1v9.3c0 5.1.4 10.3.9 11.5l.8 2.2 4.8-.9c2.7-.4 5.5-1.5 6.3-2.4zM94 386c3.9-2.6 4.1-4.1 1.2-7.4L93 376l3.6-4.2c2-2.4 3.9-6 4.3-8 .4-2.2 1.3-3.9 2-3.9 2 0 1.1 7-1.8 12-2.8 5.2-2.5 10 .6 9 4.1-1.4 7.2-19.5 3.6-21.7-.7-.4-1.3-1.8-1.3-3V354l2.7 3.1 2.6 3.2v7.7c0 4.2-.9 9.8-2 12.5-3.2 7.7-.3 8.6 7.3 2.3l4.5-3.8.6-8 .6-8.2 3-2.8 3-2.9-.6-2.5c-.4-1.4 0-2.6.7-2.6 2.3 0 2.9 5.8.9 9.8-2.7 5.5-1.6 5.8 4.3 1.3a262 262 0 0 1 11-7.7c3.4-2 10-6.9 14.7-10.6 4.7-3.7 15.1-11.1 23.2-16.4l14.7-9.7.4-6.3c1-15.8-17.6-33.8-28.6-27.9-9.6 5.1-31.8 39.2-35 53.5l-.8 4-7.5.8-7.6.8-10.4 5.3-10.3 5.2-3.9 5.5-3.8 5.4-.7 8.6-.7 8.6 1.6 3c1.8 3.4 2 3.4 6.1.6zm284-10a195 195 0 0 0 23.7-37.9c2.9-5.9 7.4-14.1 10-18.4a32 32 0 0 0 4.2-8c-11.1-8.7-13.2-9.3-9.4-3 3.9 6.6 3 7.6-10.9 12.7-6.7 2.5-14 5.4-16.3 6.5a335 335 0 0 1-20.6 7.8 2507 2507 0 0 0-21.4 7.7l-4.6 1.7-5.7 7.8c-6.3 9-6.7 10.5-3 12.5 1.4.8 6.2 4.5 10.7 8.2l8.1 6.7 1.7-1.4 1.8-1.5 3.3 2.6 3.3 2.6 7.4-.7 7.3-.8 1 1.5c1.5 2.4 2.4 1.8 9.4-6.6zm-179.8 3c8.4-2.8 9.7-5 4.7-7.5l-3.7-2-8.3 5.3a51.8 51.8 0 0 0-8.2 5.9c0 1.4 8.9.5 15.5-1.7zm15.1-2.3c0-.3-.6-1-1.3-1.4-.7-.4-1.3-.2-1.3.6s.6 1.4 1.3 1.4c.7 0 1.3-.2 1.3-.6zm108.1-22.4c4.1-6.7 19.5-22.7 37-38.6 9-8.2 10.3-10.3 4.6-7.2-2 1.1-10.2 5-18.2 8.8l-14.5 6.8-7.5.8-7.5.8-4.2-3.5a23.9 23.9 0 0 1-8.4-18.7v-6.2l-4.6 3c-7.6 5-14.2 16.1-18.8 31.7a145 145 0 0 1-3.1 9.6l-1.4 3.6 7 1.4c3.7.8 12.9 4.4 20.2 8a235 235 0 0 0 14.2 6.6c.5 0 2.8-3 5.2-6.9zm-29.9-22c-2.4-2.7-3-8.3-.8-8.3.7 0 1.3 1 1.3 2.4 0 1.3 1 3.7 2 5.3 2.6 3.6.7 4-2.5.5zm5.5-2.6c-3-7.4-3.7-12.4-2.6-18.2 1.5-8.5 3.6-5.7 3.2 4.2l-.4 9 2.6 5 2.6 5h-1.7c-1 0-2.6-2.3-3.7-5zm-21.6.7a79 79 0 0 1 6.1-16c1.7-3.5.5-3-7.3 2.9l-7 5.3.9 7c.4 3.9 1.3 8.1 1.9 9.5l1 2.3 1.7-3.3a38 38 0 0 0 2.7-7.7zm107.1-9c24.4-9.5 22.7-8.1 18.4-14.7-6-9-3.7-11.4 6.1-6.1 3.4 1.8 6.5 2.9 6.8 2.3.3-.5 4-11.1 8.2-23.6l7.6-22.6.7-9.7.7-9.6-1.5-1.9c-.9-1-2.8-2.2-4.2-2.6l-2.6-.6-1.4 5.5c-2.2 9-9.8 28.9-11 28.9-.5 0-1 1.2-1 2.6 0 1.5-.4 2.7-1 2.7-.5 0-1.7 1.7-2.7 3.8a210.4 210.4 0 0 1-29.2 29.5c-2.3 1.9-8.8 7.6-14.6 12.9l-15.1 13.6-4.7 4 10-3.1c5.5-1.8 19.2-6.9 30.5-11.3zm-173.8-12.1 5.3-3.6.2-7.2.3-7.2-1.2 5.7c-2.2 10.6-4 10.6-7.3 0a80.2 80.2 0 0 0-5.5-12.6c-3.7-6.5-3.8-7-1.2-7 1.8 0 7 8 8.9 14l.9 2.6.1-5c0-2.7.6-5 1.2-5 2 0 7 6.2 8.2 10.2l1.2 3.8v-4c.3-8.3-9.7-33.4-14.9-37.8l-2-1.6-5.7 1c-5.7.8-8 2.6-14.3 11l-3 4-4.7.8c-7.3 1.4-9.6 8.6-2.6 8.6 10.7 0 27.4 19 27.4 31v3.8l1.7-1 7-4.5zm22.8-17c-1-.8-6.2 2.3-6.2 3.8 0 .7 1.6.3 3.4-1 1.9-1.1 3.1-2.4 2.8-2.7zm84.5-36.9c0-2.6-2.6-4-4.3-2.3-.7.7-1 2-.4 2.8 1.3 2.1 4.7 1.8 4.7-.5zm-16-3.4h6.8l.7-2c.5-1.1-.9-3.9-3-6.4l-4-4.4-8.9 5.7-9 5.7 2.3 2.7 2.3 2.6 3-2c1.7-1 6-1.9 9.8-1.9Zm45.7-100.9c1.7-1.6-.6-3-3-1.8l-2.3 1.2-2.9-2c-3-2.1-4-.8-1.2 1.9 1.7 1.7 8 2.2 9.4.7zm-13.4 102c-4.1-1.1-6.9-4.3-5.2-6 .3-.3 2.2.4 4 1.6l3.5 2.2h9.2l9.2.1 6.8-3.7c3.8-2 7.3-3.3 7.8-2.8 1.2 1.2-1.9 4-8.2 7.4l-5.4 2.8-8.6-.2a61 61 0 0 1-13.1-1.3zM322 233l-1-2.3h-3.8c-5.1 0-9.4-2.2-12.4-6.1-3.7-5-1.4-6.2 3.2-1.7l4 4.1 5.5-.7c7-1 12.3-4.9 12.8-9.4.4-3.6 2.1-4.7 3.6-2.3 1.4 2.3-3.1 10.7-6.5 12.2l-3.4 1.6-.4 3.4-.5 3.5zm-13.5-15-2.6-2h3.4c8 0 14.9-19.3 9.3-26l-1.6-2-2.5 1.4c-1.3.7-3.5 1.2-4.8 1.2h-2.5l4-3.3c7-5.8 11.4-2.2 11.4 9.3 0 15.8-7.2 26.7-14.1 21.4zm59.6-7.4c.4-1 1.4-2 2.4-2.4 1-.3 1.5.2 1.1 1.2-.3 1-1.3 2-2.3 2.4-1 .3-1.5-.2-1.1-1.2zm59.8-1c0-5 6.6-9.5 6.7-4.6v2.3l3.4-3.8 3.3-3.8-1.5-1.8c-3-3.7-17.2-.1-17.2 4.4 0 2.1-3 1.7-3.7-.6-1.3-4 12.5-10.8 19-9.2 10 2.6 5.4 16-6.5 19l-3.5.8Zm-62.7-3.5c0-1.8-1.5-5.5-3.3-8.2a20.2 20.2 0 0 1-3.3-6.8c0-1-.9-1.8-2-1.8-2.6 0-10-6.5-10-8.8v-1.8H336l-2.1-3.2a17.3 17.3 0 0 1-2.4-7l-.3-3.7 3.4-1.7c1.8-1 5.5-1.7 8.2-1.7h4.9l2.1-4.3c1.2-2.3 2.1-6.5 2.1-9.3 0-2.8.6-5.1 1.3-5.1 1.8 0 1.7 7.2-.2 13.6-1.8 6-7 10.8-10.6 9.6-3.4-1-7.8.6-7.8 2.9 0 1 .6 1.9 1.3 1.9.7 0 1.3.9 1.3 2v2h10.2l2.3 2.4c1.2 1.3 2.2 3 2.2 3.8 0 2.4 3.5 4.5 5.9 3.6 1.2-.4 2-1.8 1.8-3-.2-1.2.3-2.3 1-2.5.7-.2 1.6 3.7 2 8.6l.6 9 2.4 3.4c2.6 3.6 3 7.4 1 8.7-.8.4-1.4-.7-1.4-2.6zm25-23.7c-.5-1.6-.6-3.3-.2-3.6.9-.9 3.2 2.6 3.2 4.9 0 2.8-2.3 1.8-3-1.3zM378 179l-8.2-1.2-4.2-.6-1.5-4.2c-.8-2.3-1.4-6.2-1.4-8.7V160l2.2.4c3.2.6 3.7-2.5.5-3.3-4.4-1.2-3.2-3.5 2.3-4.4 2.7-.5 6.4-1.8 8-2.9 4.7-2.9 5.6-.6 1.2 2.9l-3.8 3 4.2 3.5c2.3 2 5.4 3.6 6.8 3.6 1.4 0 4.5 1.7 6.9 3.9l4.3 3.9-1.6 1.7-1.7 1.7-1.6-1.6c-.9-1-4.6-1.6-8.3-1.7-7.3 0-12.8-2-13.9-5.2l-.6-1.9 3.7 3c3.8 2.9 10.6 3.7 13.8 1.7l1.8-1.2-4.3-.8c-2.3-.5-5.6-.9-7.3-.9-3 0-5.3-3.1-4-5.3.4-.6.2-1.5-.5-1.9-.6-.4-1.6.7-2 2.6-.5 1.8-1.4 3.3-2 3.3-1.5 0 .4 7.5 2.6 10 .8 1 4.4 2 8 2.3 3.7.2 6.7 1 6.7 1.7.1 1.5-.9 1.7-6.1 1.1zm16.1-2.6c-1.1-3 .4-4.3 2-1.8 1.5 2.5 1.6 4 0 4-.6 0-1.5-1-2-2.2zm-2-17c-1.7-1.8-2.7-4-2.2-4.7.5-.8-1-5.6-3.2-10.7-4.3-9.8-5-14-2.4-13.1 1 .3 2.2 3 2.8 6.1l1 5.6h2.4c3.1 0 6.8 8 6.8 14.7 0 6.1-1 6.5-5.2 2zm-61.9-3.3C329 155 328 153 328 152v-1.8l3 2.9 3.2 2.9h6.2c3.5 0 6.3.6 6.3 1.3 0 .8-3.2 1.4-7.2 1.4h-7z"/>
</svg>
